<svg id="logos" xmlns="http://www.w3.org/2000/svg" viewBox="0 0 900 600"><defs><style>.cls-1{fill:#00b3ec;}.cls-2{fill:#0068b6;}.cls-3{fill:#1d2087;}.cls-4{fill:#231815;}</style></defs><title>TA_Logo_Basic</title><polygon class="cls-1" points="231.7 239.35 210.65 239.35 258.35 321.97 209.9 321.97 199.38 340.19 289.92 340.19 231.7 239.35"/><polygon class="cls-2" points="150 341.6 160.52 359.82 208.22 277.21 232.44 319.16 253.49 319.16 208.22 240.75 150 341.6"/><polygon class="cls-3" points="194.52 343 218.74 301.05 208.22 282.82 162.95 361.23 279.39 361.23 289.92 343 194.52 343"/><rect class="cls-4" x="454.56" y="260.7" width="21.19" height="79.46"/><polygon class="cls-4" points="444.83 340.16 400.67 258.05 356.5 340.16 379.32 340.16 400.67 297.65 414.03 324.27 400.67 324.27 392.71 340.16 444.83 340.16"/><path class="cls-4" d="M664.66,300.43a42.1,42.1,0,1,1-42.1-42.09,42.1,42.1,0,0,1,42.1,42.09m-42.1-22.51c-12.07,0-21.85,10.08-21.85,22.51S610.49,323,622.56,323s21.85-10.08,21.85-22.52-9.78-22.51-21.85-22.51"/><path class="cls-4" d="M558.91,297.9c4.07-4,6.6-8.76,6.6-13.68,0-12.17-9.07-23.5-25.91-23.5H499.27V276.6h35.1c7,0,11.77,2.1,11.77,7.62,0,5-4,7.2-10,7.54H499.27v48.4l42.22-.07c15.78,0,27.1-9.92,27.1-23.5a21.68,21.68,0,0,0-9.68-18.69m-21.46,26.3H519.13V309l18.32-.07c7.4,0,11.78,2.1,11.78,7.62s-4.38,7.61-11.78,7.61"/><path class="cls-4" d="M750,300.44c0-21.59-13.34-39.73-45.48-39.73H678.89v18.54h25.32c20.54,0,25.93,9.84,25.93,21.19h0c0,11.35-5.39,21.19-25.93,21.19h-5.46V291.76H678.89v48.4h25.63c32.14,0,45.48-18.14,45.48-39.72Z"/></svg>